<?xml version="1.0" encoding="UTF-8" standalone="no"?>
<!DOCTYPE svg PUBLIC "-//W3C//DTD SVG 1.1//EN" "http://www.w3.org/Graphics/SVG/1.1/DTD/svg11.dtd">
<svg xmlns="http://www.w3.org/2000/svg" version="1.1" viewBox="0.00 0.00 512.00 512.00">
<g stroke-width="2.00" fill="none" stroke-linecap="butt">
<path stroke="#7f4305" vector-effect="non-scaling-stroke" d="
  M 138.43 28.68
  L 138.88 30.14"
/>
<path stroke="#7f4c1c" vector-effect="non-scaling-stroke" d="
  M 138.88 30.14
  C 139.53 34.66 137.15 37.47 133.09 39.18
  C 80.75 61.26 41.68 100.59 21.45 154.32
  Q 19.60 159.25 19.48 163.45
  C 19.23 172.20 25.23 179.98 33.33 182.87
  Q 36.39 183.96 47.68 183.96
  Q 261.40 183.97 475.01 183.95"
/>
<path stroke="#7f4305" vector-effect="non-scaling-stroke" d="
  M 475.01 183.95
  Q 480.97 182.51 484.34 179.84
  C 492.19 173.63 494.29 164.36 490.77 155.08
  C 478.48 122.62 459.72 94.58 433.01 72.13
  C 383.47 30.48 316.65 15.82 253.25 15.84
  Q 246.35 15.84 232.67 16.80"
/>
<path stroke="#7f4c1c" vector-effect="non-scaling-stroke" d="
  M 232.67 16.80
  Q 201.21 18.77 165.92 27.64
  Q 161.81 28.67 158.67 25.23"
/>
<path stroke="#7f4305" vector-effect="non-scaling-stroke" d="
  M 158.67 25.23
  L 157.08 22.30"
/>
<path stroke="#4f2b14" vector-effect="non-scaling-stroke" d="
  M 496.98 225.09
  A 26.14 26.14 0.0 0 0 470.84 198.95
  L 41.14 198.95
  A 26.14 26.14 0.0 0 0 15.00 225.09
  L 15.00 231.55
  A 26.14 26.14 0.0 0 0 41.14 257.69
  L 470.84 257.69
  A 26.14 26.14 0.0 0 0 496.98 231.55
  L 496.98 225.09"
/>
<path stroke="#5e7636" vector-effect="non-scaling-stroke" d="
  M 286.15 297.13
  C 285.83 301.77 282.70 304.73 278.20 304.73
  Q 220.10 304.76 166.59 304.73
  C 160.33 304.73 156.12 308.82 156.09 315.39
  Q 155.99 337.98 156.13 356.26
  Q 156.13 356.93 156.76 356.72
  C 167.46 353.23 174.25 343.87 184.73 339.63
  C 197.94 334.29 214.60 335.52 226.63 343.68
  Q 232.09 347.38 237.06 351.41
  C 247.28 359.69 263.11 359.99 273.49 352.32
  C 277.92 349.04 282.17 345.29 286.91 342.53
  Q 302.68 333.34 321.90 337.96
  C 330.45 340.01 337.34 345.32 344.04 350.71
  C 349.08 354.77 354.47 357.24 361.06 357.69
  C 370.07 358.31 376.84 356.09 383.62 350.69
  Q 387.14 347.89 390.71 345.23
  C 406.26 333.66 428.49 333.19 443.29 345.38
  C 446.60 348.11 450.69 349.64 454.91 348.41
  Q 464.24 345.71 464.23 335.52
  Q 464.22 321.48 464.24 305.35
  Q 464.24 304.73 463.62 304.73
  Q 395.08 304.73 315.34 304.76
  C 310.19 304.76 306.65 302.54 306.21 297.13"
/>
<path stroke="#7f722d" vector-effect="non-scaling-stroke" d="
  M 306.21 297.13
  C 306.74 292.46 309.65 289.79 314.26 289.78
  Q 390.15 289.67 463.67 289.78
  Q 464.24 289.78 464.24 289.21
  L 464.24 273.22
  Q 464.24 272.69 463.72 272.69
  L 48.28 272.69
  Q 47.76 272.69 47.76 273.22
  L 47.76 289.21
  Q 47.76 289.75 48.29 289.75
  Q 66.19 289.75 85.35 289.73
  Q 98.01 289.72 105.14 298.12
  Q 111.49 305.61 111.49 314.78
  Q 111.49 359.63 111.49 406.62
  C 111.49 412.00 114.03 416.84 118.68 419.61
  C 128.41 425.41 140.99 418.57 141.01 407.03
  Q 141.12 360.42 140.95 317.33
  Q 140.94 313.91 141.31 311.21
  C 142.66 301.58 149.54 293.60 158.70 290.82
  Q 162.84 289.57 172.91 289.62
  Q 224.79 289.90 277.10 289.65
  C 282.16 289.63 285.65 291.88 286.15 297.13"
/>
<path stroke="#dde863" vector-effect="non-scaling-stroke" d="
  M 306.21 297.13
  L 286.15 297.13"
/>
<path stroke="#5e7636" vector-effect="non-scaling-stroke" d="
  M 69.15 344.89
  C 76.51 338.76 86.29 336.04 95.89 336.53
  Q 96.55 336.57 96.53 335.91
  Q 96.37 326.33 96.57 317.16
  C 96.72 309.80 93.37 304.68 85.47 304.71
  Q 66.27 304.79 48.13 304.73
  Q 47.52 304.73 47.52 305.34
  Q 47.53 321.25 47.53 336.07
  Q 47.54 342.83 52.54 346.41
  C 58.20 350.45 64.07 349.10 69.15 344.89"
/>
<path stroke="#752222" vector-effect="non-scaling-stroke" d="
  M 77.12 357.63
  C 61.39 370.31 38.17 362.39 33.34 342.97
  C 32.53 339.69 32.50 336.19 32.57 332.80
  Q 32.58 332.07 31.91 332.35
  Q 19.27 337.66 15.93 350.09
  Q 14.92 353.81 14.90 359.65
  Q 14.87 365.51 15.76 369.21
  Q 19.14 383.29 33.31 388.22
  Q 37.20 389.58 46.19 389.50
  Q 71.98 389.29 95.78 389.47
  A 0.71 0.71 0.0 0 0 96.49 388.76
  L 96.49 352.19
  Q 96.49 351.58 95.88 351.54
  C 88.47 351.01 82.79 353.07 77.12 357.63"
/>
<path stroke="#752222" vector-effect="non-scaling-stroke" d="
  M 240.59 370.29
  C 232.62 367.49 226.37 362.20 219.92 357.23
  Q 213.09 351.97 204.03 351.51
  C 195.15 351.07 188.66 353.32 182.04 358.62
  C 174.14 364.95 166.58 370.47 156.43 372.08
  A 0.48 0.46 85.8 0 0 156.04 372.55
  L 156.03 388.99
  A 0.44 0.43 0.0 0 0 156.47 389.42
  Q 314.81 389.33 464.87 389.49
  Q 475.29 389.50 479.22 388.09
  C 489.57 384.36 496.53 375.29 496.95 364.21
  Q 497.16 358.86 496.86 355.04
  Q 495.63 339.16 479.94 332.21
  A 0.50 0.50 0.0 0 0 479.24 332.69
  C 479.68 345.18 475.22 355.55 463.55 361.18
  C 456.59 364.54 447.92 364.70 440.98 361.45
  Q 436.91 359.54 432.71 356.21
  C 425.57 350.55 414.85 350.34 406.74 353.34
  C 400.91 355.50 395.69 360.43 390.56 364.22
  Q 380.57 371.58 368.44 372.58
  C 354.53 373.73 343.71 369.90 333.49 361.53
  C 328.42 357.38 323.09 353.26 316.51 352.09
  C 306.02 350.22 297.59 352.37 289.55 358.93
  Q 285.12 362.55 280.49 365.68
  C 269.06 373.41 253.34 374.77 240.59 370.29"
/>
<path stroke="#7f4305" vector-effect="non-scaling-stroke" d="
  M 395.97 490.28
  Q 412.58 485.64 426.42 476.93
  C 451.76 461.00 465.47 435.63 464.37 405.10
  Q 464.34 404.51 463.76 404.50
  L 449.01 404.43"
/>
<path stroke="#7f4c1c" vector-effect="non-scaling-stroke" d="
  M 449.01 404.43
  L 156.35 404.45
  Q 156.05 404.45 156.06 404.74
  Q 156.42 419.26 146.88 428.42
  C 136.33 438.53 120.04 439.61 108.44 430.76
  Q 96.08 421.33 96.48 404.95
  Q 96.49 404.42 95.97 404.42
  L 48.26 404.42
  Q 47.61 404.42 47.58 405.07
  C 46.17 435.96 61.04 462.44 87.36 477.91
  Q 118.43 496.16 155.00 496.19
  Q 258.35 496.28 361.25 496.23
  Q 378.00 496.22 395.97 490.28"
/>
<path stroke="#fe8f21" vector-effect="non-scaling-stroke" d="
  M 449.01 404.43
  Q 450.76 443.21 424.91 469.40
  Q 414.04 480.41 395.97 490.28"
/>
<path stroke="#fe8f21" vector-effect="non-scaling-stroke" d="
  M 475.01 183.95
  Q 478.46 172.36 475.21 163.26
  Q 453.93 103.55 402.07 65.72
  C 379.51 49.27 352.33 37.19 324.91 29.74
  Q 281.54 17.96 235.74 17.88
  Q 234.25 17.88 232.67 16.80"
/>
<path stroke="#fe8f21" vector-effect="non-scaling-stroke" d="
  M 138.88 30.14
  L 158.67 25.23"
/>
<path stroke="#7f4c1c" vector-effect="non-scaling-stroke" d="
  M 263.3750 64.6760
  A 7.06 7.06 0.0 0 0 256.3397 57.5914
  L 255.5797 57.5888
  A 7.06 7.06 0.0 0 0 248.4951 64.6241
  L 248.4450 78.9640
  A 7.06 7.06 0.0 0 0 255.4803 86.0486
  L 256.2403 86.0512
  A 7.06 7.06 0.0 0 0 263.3249 79.0159
  L 263.3750 64.6760"
/>
<path stroke="#7f4c1c" vector-effect="non-scaling-stroke" d="
  M 200.0553 69.2454
  A 7.16 7.16 0.0 0 0 197.2473 59.5168
  L 196.6870 59.2075
  A 7.16 7.16 0.0 0 0 186.9583 62.0155
  L 180.1247 74.3946
  A 7.16 7.16 0.0 0 0 182.9327 84.1232
  L 183.4930 84.4325
  A 7.16 7.16 0.0 0 0 193.2217 81.6245
  L 200.0553 69.2454"
/>
<path stroke="#7f4c1c" vector-effect="non-scaling-stroke" d="
  M 324.5730 61.9184
  A 7.16 7.16 0.0 0 0 314.7698 59.3831
  L 314.2355 59.6977
  A 7.16 7.16 0.0 0 0 311.7003 69.5010
  L 318.8870 81.7016
  A 7.16 7.16 0.0 0 0 328.6902 84.2369
  L 329.2245 83.9223
  A 7.16 7.16 0.0 0 0 331.7597 74.1190
  L 324.5730 61.9184"
/>
</g>
<path fill="#000000" d="
  M 512.00 222.04
  L 512.00 234.37
  C 509.84 253.34 498.41 266.85 479.82 271.70
  Q 479.24 271.84 479.24 272.44
  L 479.24 315.98
  Q 479.24 316.55 479.79 316.69
  C 482.26 317.33 484.91 318.01 487.18 319.07
  Q 509.30 329.39 512.00 354.26
  L 512.00 366.34
  Q 508.07 395.62 479.88 403.53
  Q 479.35 403.68 479.36 404.23
  C 480.58 443.13 462.30 474.12 428.72 492.78
  Q 395.55 511.21 356.78 511.24
  Q 278.61 511.29 155.20 511.24
  Q 119.09 511.23 87.10 494.87
  Q 70.32 486.29 58.23 473.75
  C 40.65 455.52 31.08 430.50 32.75 404.38
  Q 32.79 403.73 32.17 403.56
  Q 3.80 395.52 0.00 366.21
  L 0.00 353.65
  C 2.28 335.18 13.81 321.13 32.03 316.75
  Q 32.64 316.60 32.64 315.99
  L 32.77 272.47
  Q 32.77 271.86 32.18 271.72
  C 14.12 267.42 1.60 252.70 0.00 234.21
  L 0.00 221.91
  Q 2.06 202.91 17.31 191.48
  Q 17.70 191.18 17.33 190.86
  C 5.89 180.83 1.44 166.18 6.55 151.69
  C 21.11 110.40 47.55 75.42 82.65 50.28
  Q 105.00 34.28 128.31 24.85
  Q 134.93 22.17 138.43 28.68
  L 138.88 30.14
  C 139.53 34.66 137.15 37.47 133.09 39.18
  C 80.75 61.26 41.68 100.59 21.45 154.32
  Q 19.60 159.25 19.48 163.45
  C 19.23 172.20 25.23 179.98 33.33 182.87
  Q 36.39 183.96 47.68 183.96
  Q 261.40 183.97 475.01 183.95
  Q 480.97 182.51 484.34 179.84
  C 492.19 173.63 494.29 164.36 490.77 155.08
  C 478.48 122.62 459.72 94.58 433.01 72.13
  C 383.47 30.48 316.65 15.82 253.25 15.84
  Q 246.35 15.84 232.67 16.80
  Q 201.21 18.77 165.92 27.64
  Q 161.81 28.67 158.67 25.23
  L 157.08 22.30
  C 156.16 15.96 159.61 13.75 165.34 12.31
  Q 254.50 -10.13 343.30 11.48
  C 373.07 18.72 403.00 31.54 427.93 49.23
  Q 482.07 87.63 505.20 150.91
  C 510.36 165.04 506.33 181.10 494.68 190.77
  Q 494.23 191.14 494.69 191.49
  Q 509.96 202.93 512.00 222.04
  Z
  M 496.98 225.09
  A 26.14 26.14 0.0 0 0 470.84 198.95
  L 41.14 198.95
  A 26.14 26.14 0.0 0 0 15.00 225.09
  L 15.00 231.55
  A 26.14 26.14 0.0 0 0 41.14 257.69
  L 470.84 257.69
  A 26.14 26.14 0.0 0 0 496.98 231.55
  L 496.98 225.09
  Z
  M 286.15 297.13
  C 285.83 301.77 282.70 304.73 278.20 304.73
  Q 220.10 304.76 166.59 304.73
  C 160.33 304.73 156.12 308.82 156.09 315.39
  Q 155.99 337.98 156.13 356.26
  Q 156.13 356.93 156.76 356.72
  C 167.46 353.23 174.25 343.87 184.73 339.63
  C 197.94 334.29 214.60 335.52 226.63 343.68
  Q 232.09 347.38 237.06 351.41
  C 247.28 359.69 263.11 359.99 273.49 352.32
  C 277.92 349.04 282.17 345.29 286.91 342.53
  Q 302.68 333.34 321.90 337.96
  C 330.45 340.01 337.34 345.32 344.04 350.71
  C 349.08 354.77 354.47 357.24 361.06 357.69
  C 370.07 358.31 376.84 356.09 383.62 350.69
  Q 387.14 347.89 390.71 345.23
  C 406.26 333.66 428.49 333.19 443.29 345.38
  C 446.60 348.11 450.69 349.64 454.91 348.41
  Q 464.24 345.71 464.23 335.52
  Q 464.22 321.48 464.24 305.35
  Q 464.24 304.73 463.62 304.73
  Q 395.08 304.73 315.34 304.76
  C 310.19 304.76 306.65 302.54 306.21 297.13
  C 306.74 292.46 309.65 289.79 314.26 289.78
  Q 390.15 289.67 463.67 289.78
  Q 464.24 289.78 464.24 289.21
  L 464.24 273.22
  Q 464.24 272.69 463.72 272.69
  L 48.28 272.69
  Q 47.76 272.69 47.76 273.22
  L 47.76 289.21
  Q 47.76 289.75 48.29 289.75
  Q 66.19 289.75 85.35 289.73
  Q 98.01 289.72 105.14 298.12
  Q 111.49 305.61 111.49 314.78
  Q 111.49 359.63 111.49 406.62
  C 111.49 412.00 114.03 416.84 118.68 419.61
  C 128.41 425.41 140.99 418.57 141.01 407.03
  Q 141.12 360.42 140.95 317.33
  Q 140.94 313.91 141.31 311.21
  C 142.66 301.58 149.54 293.60 158.70 290.82
  Q 162.84 289.57 172.91 289.62
  Q 224.79 289.90 277.10 289.65
  C 282.16 289.63 285.65 291.88 286.15 297.13
  Z
  M 69.15 344.89
  C 76.51 338.76 86.29 336.04 95.89 336.53
  Q 96.55 336.57 96.53 335.91
  Q 96.37 326.33 96.57 317.16
  C 96.72 309.80 93.37 304.68 85.47 304.71
  Q 66.27 304.79 48.13 304.73
  Q 47.52 304.73 47.52 305.34
  Q 47.53 321.25 47.53 336.07
  Q 47.54 342.83 52.54 346.41
  C 58.20 350.45 64.07 349.10 69.15 344.89
  Z
  M 77.12 357.63
  C 61.39 370.31 38.17 362.39 33.34 342.97
  C 32.53 339.69 32.50 336.19 32.57 332.80
  Q 32.58 332.07 31.91 332.35
  Q 19.27 337.66 15.93 350.09
  Q 14.92 353.81 14.90 359.65
  Q 14.87 365.51 15.76 369.21
  Q 19.14 383.29 33.31 388.22
  Q 37.20 389.58 46.19 389.50
  Q 71.98 389.29 95.78 389.47
  A 0.71 0.71 0.0 0 0 96.49 388.76
  L 96.49 352.19
  Q 96.49 351.58 95.88 351.54
  C 88.47 351.01 82.79 353.07 77.12 357.63
  Z
  M 240.59 370.29
  C 232.62 367.49 226.37 362.20 219.92 357.23
  Q 213.09 351.97 204.03 351.51
  C 195.15 351.07 188.66 353.32 182.04 358.62
  C 174.14 364.95 166.58 370.47 156.43 372.08
  A 0.48 0.46 85.8 0 0 156.04 372.55
  L 156.03 388.99
  A 0.44 0.43 0.0 0 0 156.47 389.42
  Q 314.81 389.33 464.87 389.49
  Q 475.29 389.50 479.22 388.09
  C 489.57 384.36 496.53 375.29 496.95 364.21
  Q 497.16 358.86 496.86 355.04
  Q 495.63 339.16 479.94 332.21
  A 0.50 0.50 0.0 0 0 479.24 332.69
  C 479.68 345.18 475.22 355.55 463.55 361.18
  C 456.59 364.54 447.92 364.70 440.98 361.45
  Q 436.91 359.54 432.71 356.21
  C 425.57 350.55 414.85 350.34 406.74 353.34
  C 400.91 355.50 395.69 360.43 390.56 364.22
  Q 380.57 371.58 368.44 372.58
  C 354.53 373.73 343.71 369.90 333.49 361.53
  C 328.42 357.38 323.09 353.26 316.51 352.09
  C 306.02 350.22 297.59 352.37 289.55 358.93
  Q 285.12 362.55 280.49 365.68
  C 269.06 373.41 253.34 374.77 240.59 370.29
  Z
  M 395.97 490.28
  Q 412.58 485.64 426.42 476.93
  C 451.76 461.00 465.47 435.63 464.37 405.10
  Q 464.34 404.51 463.76 404.50
  L 449.01 404.43
  L 156.35 404.45
  Q 156.05 404.45 156.06 404.74
  Q 156.42 419.26 146.88 428.42
  C 136.33 438.53 120.04 439.61 108.44 430.76
  Q 96.08 421.33 96.48 404.95
  Q 96.49 404.42 95.97 404.42
  L 48.26 404.42
  Q 47.61 404.42 47.58 405.07
  C 46.17 435.96 61.04 462.44 87.36 477.91
  Q 118.43 496.16 155.00 496.19
  Q 258.35 496.28 361.25 496.23
  Q 378.00 496.22 395.97 490.28
  Z"
/>
<path fill="#fe860a" d="
  M 475.01 183.95
  Q 478.46 172.36 475.21 163.26
  Q 453.93 103.55 402.07 65.72
  C 379.51 49.27 352.33 37.19 324.91 29.74
  Q 281.54 17.96 235.74 17.88
  Q 234.25 17.88 232.67 16.80
  Q 246.35 15.84 253.25 15.84
  C 316.65 15.82 383.47 30.48 433.01 72.13
  C 459.72 94.58 478.48 122.62 490.77 155.08
  C 494.29 164.36 492.19 173.63 484.34 179.84
  Q 480.97 182.51 475.01 183.95
  Z"
/>
<path fill="#fe9738" d="
  M 232.67 16.80
  Q 234.25 17.88 235.74 17.88
  Q 281.54 17.96 324.91 29.74
  C 352.33 37.19 379.51 49.27 402.07 65.72
  Q 453.93 103.55 475.21 163.26
  Q 478.46 172.36 475.01 183.95
  Q 261.40 183.97 47.68 183.96
  Q 36.39 183.96 33.33 182.87
  C 25.23 179.98 19.23 172.20 19.48 163.45
  Q 19.60 159.25 21.45 154.32
  C 41.68 100.59 80.75 61.26 133.09 39.18
  C 137.15 37.47 139.53 34.66 138.88 30.14
  L 158.67 25.23
  Q 161.81 28.67 165.92 27.64
  Q 201.21 18.77 232.67 16.80
  Z
  M 263.3750 64.6760
  A 7.06 7.06 0.0 0 0 256.3397 57.5914
  L 255.5797 57.5888
  A 7.06 7.06 0.0 0 0 248.4951 64.6241
  L 248.4450 78.9640
  A 7.06 7.06 0.0 0 0 255.4803 86.0486
  L 256.2403 86.0512
  A 7.06 7.06 0.0 0 0 263.3249 79.0159
  L 263.3750 64.6760
  Z
  M 200.0553 69.2454
  A 7.16 7.16 0.0 0 0 197.2473 59.5168
  L 196.6870 59.2075
  A 7.16 7.16 0.0 0 0 186.9583 62.0155
  L 180.1247 74.3946
  A 7.16 7.16 0.0 0 0 182.9327 84.1232
  L 183.4930 84.4325
  A 7.16 7.16 0.0 0 0 193.2217 81.6245
  L 200.0553 69.2454
  Z
  M 324.5730 61.9184
  A 7.16 7.16 0.0 0 0 314.7698 59.3831
  L 314.2355 59.6977
  A 7.16 7.16 0.0 0 0 311.7003 69.5010
  L 318.8870 81.7016
  A 7.16 7.16 0.0 0 0 328.6902 84.2369
  L 329.2245 83.9223
  A 7.16 7.16 0.0 0 0 331.7597 74.1190
  L 324.5730 61.9184
  Z"
/>
<path fill="#fe860a" d="
  M 157.08 22.30
  L 158.67 25.23
  L 138.88 30.14
  L 138.43 28.68
  L 157.08 22.30
  Z"
/>
<rect fill="#000000" x="-7.44" y="-14.23" transform="translate(255.91,71.82) rotate(0.2)" width="14.88" height="28.46" rx="7.06"/>
<rect fill="#000000" x="-7.48" y="-14.23" transform="translate(190.09,71.82) rotate(28.9)" width="14.96" height="28.46" rx="7.16"/>
<rect fill="#000000" x="-7.47" y="-14.24" transform="translate(321.73,71.81) rotate(-30.5)" width="14.94" height="28.48" rx="7.16"/>
<rect fill="#9e5528" x="15.00" y="198.95" width="481.98" height="58.74" rx="26.14"/>
<path fill="#fee45a" d="
  M 306.21 297.13
  L 286.15 297.13
  C 285.65 291.88 282.16 289.63 277.10 289.65
  Q 224.79 289.90 172.91 289.62
  Q 162.84 289.57 158.70 290.82
  C 149.54 293.60 142.66 301.58 141.31 311.21
  Q 140.94 313.91 140.95 317.33
  Q 141.12 360.42 141.01 407.03
  C 140.99 418.57 128.41 425.41 118.68 419.61
  C 114.03 416.84 111.49 412.00 111.49 406.62
  Q 111.49 359.63 111.49 314.78
  Q 111.49 305.61 105.14 298.12
  Q 98.01 289.72 85.35 289.73
  Q 66.19 289.75 48.29 289.75
  Q 47.76 289.75 47.76 289.21
  L 47.76 273.22
  Q 47.76 272.69 48.28 272.69
  L 463.72 272.69
  Q 464.24 272.69 464.24 273.22
  L 464.24 289.21
  Q 464.24 289.78 463.67 289.78
  Q 390.15 289.67 314.26 289.78
  C 309.65 289.79 306.74 292.46 306.21 297.13
  Z"
/>
<path fill="#bbec6c" d="
  M 286.15 297.13
  L 306.21 297.13
  C 306.65 302.54 310.19 304.76 315.34 304.76
  Q 395.08 304.73 463.62 304.73
  Q 464.24 304.73 464.24 305.35
  Q 464.22 321.48 464.23 335.52
  Q 464.24 345.71 454.91 348.41
  C 450.69 349.64 446.60 348.11 443.29 345.38
  C 428.49 333.19 406.26 333.66 390.71 345.23
  Q 387.14 347.89 383.62 350.69
  C 376.84 356.09 370.07 358.31 361.06 357.69
  C 354.47 357.24 349.08 354.77 344.04 350.71
  C 337.34 345.32 330.45 340.01 321.90 337.96
  Q 302.68 333.34 286.91 342.53
  C 282.17 345.29 277.92 349.04 273.49 352.32
  C 263.11 359.99 247.28 359.69 237.06 351.41
  Q 232.09 347.38 226.63 343.68
  C 214.60 335.52 197.94 334.29 184.73 339.63
  C 174.25 343.87 167.46 353.23 156.76 356.72
  Q 156.13 356.93 156.13 356.26
  Q 155.99 337.98 156.09 315.39
  C 156.12 308.82 160.33 304.73 166.59 304.73
  Q 220.10 304.76 278.20 304.73
  C 282.70 304.73 285.83 301.77 286.15 297.13
  Z"
/>
<path fill="#bbec6c" d="
  M 95.89 336.53
  C 86.29 336.04 76.51 338.76 69.15 344.89
  C 64.07 349.10 58.20 350.45 52.54 346.41
  Q 47.54 342.83 47.53 336.07
  Q 47.53 321.25 47.52 305.34
  Q 47.52 304.73 48.13 304.73
  Q 66.27 304.79 85.47 304.71
  C 93.37 304.68 96.72 309.80 96.57 317.16
  Q 96.37 326.33 96.53 335.91
  Q 96.55 336.57 95.89 336.53
  Z"
/>
<path fill="#e94444" d="
  M 33.34 342.97
  C 38.17 362.39 61.39 370.31 77.12 357.63
  C 82.79 353.07 88.47 351.01 95.88 351.54
  Q 96.49 351.58 96.49 352.19
  L 96.49 388.76
  A 0.71 0.71 0.0 0 1 95.78 389.47
  Q 71.98 389.29 46.19 389.50
  Q 37.20 389.58 33.31 388.22
  Q 19.14 383.29 15.76 369.21
  Q 14.87 365.51 14.90 359.65
  Q 14.92 353.81 15.93 350.09
  Q 19.27 337.66 31.91 332.35
  Q 32.58 332.07 32.57 332.80
  C 32.50 336.19 32.53 339.69 33.34 342.97
  Z"
/>
<path fill="#e94444" d="
  M 240.59 370.29
  C 253.34 374.77 269.06 373.41 280.49 365.68
  Q 285.12 362.55 289.55 358.93
  C 297.59 352.37 306.02 350.22 316.51 352.09
  C 323.09 353.26 328.42 357.38 333.49 361.53
  C 343.71 369.90 354.53 373.73 368.44 372.58
  Q 380.57 371.58 390.56 364.22
  C 395.69 360.43 400.91 355.50 406.74 353.34
  C 414.85 350.34 425.57 350.55 432.71 356.21
  Q 436.91 359.54 440.98 361.45
  C 447.92 364.70 456.59 364.54 463.55 361.18
  C 475.22 355.55 479.68 345.18 479.24 332.69
  A 0.50 0.50 0.0 0 1 479.94 332.21
  Q 495.63 339.16 496.86 355.04
  Q 497.16 358.86 496.95 364.21
  C 496.53 375.29 489.57 384.36 479.22 388.09
  Q 475.29 389.50 464.87 389.49
  Q 314.81 389.33 156.47 389.42
  A 0.44 0.43 0.0 0 1 156.03 388.99
  L 156.04 372.55
  A 0.48 0.46 85.8 0 1 156.43 372.08
  C 166.58 370.47 174.14 364.95 182.04 358.62
  C 188.66 353.32 195.15 351.07 204.03 351.51
  Q 213.09 351.97 219.92 357.23
  C 226.37 362.20 232.62 367.49 240.59 370.29
  Z"
/>
<path fill="#fe9738" d="
  M 449.01 404.43
  Q 450.76 443.21 424.91 469.40
  Q 414.04 480.41 395.97 490.28
  Q 378.00 496.22 361.25 496.23
  Q 258.35 496.28 155.00 496.19
  Q 118.43 496.16 87.36 477.91
  C 61.04 462.44 46.17 435.96 47.58 405.07
  Q 47.61 404.42 48.26 404.42
  L 95.97 404.42
  Q 96.49 404.42 96.48 404.95
  Q 96.08 421.33 108.44 430.76
  C 120.04 439.61 136.33 438.53 146.88 428.42
  Q 156.42 419.26 156.06 404.74
  Q 156.05 404.45 156.35 404.45
  L 449.01 404.43
  Z"
/>
<path fill="#fe860a" d="
  M 449.01 404.43
  L 463.76 404.50
  Q 464.34 404.51 464.37 405.10
  C 465.47 435.63 451.76 461.00 426.42 476.93
  Q 412.58 485.64 395.97 490.28
  Q 414.04 480.41 424.91 469.40
  Q 450.76 443.21 449.01 404.43
  Z"
/>
</svg>
